HIERARCHY
ROOT Hips
{
	OFFSET 0.000000 0.000000 0.000000
	CHANNELS 6 Xposition Yposition Zposition Zrotation Yrotation Xrotation 
	JOINT LHipJoint
	{
		OFFSET 0.000000 0.000000 0.000000
		CHANNELS 3 Zrotation Yrotation Xrotation
		JOINT LeftUpLeg
		{
			OFFSET 1.363060 -1.794630 0.839290
			CHANNELS 3 Zrotation Yrotation Xrotation
			JOINT LeftLeg
			{
				OFFSET 2.448110 -6.726130 0.000000
				CHANNELS 3 Zrotation Yrotation Xrotation
				JOINT LeftFoot
				{
					OFFSET 2.562200 -7.039590 0.000000
					CHANNELS 3 Zrotation Yrotation Xrotation
					JOINT LeftToeBase
					{
						OFFSET 0.157640 -0.433110 2.322550
						CHANNELS 3 Zrotation Yrotation Xrotation
						End Site
						{
							OFFSET 0.000000 0.000000 0.000000
						}
					}
				}
			}
		}
	}
	JOINT RHipJoint
	{
		OFFSET 0.000000 0.000000 0.000000
		CHANNELS 3 Zrotation Yrotation Xrotation
		JOINT RightUpLeg
		{
			OFFSET -1.305520 -1.794630 0.839290
			CHANNELS 3 Zrotation Yrotation Xrotation
			JOINT RightLeg
			{
				OFFSET -2.542530 -6.985550 0.000000
				CHANNELS 3 Zrotation Yrotation Xrotation
				JOINT RightFoot
				{
					OFFSET -2.568260 -7.056230 0.000000
					CHANNELS 3 Zrotation Yrotation Xrotation
					JOINT RightToeBase
					{
						OFFSET -0.164730 -0.452590 2.363150
						CHANNELS 3 Zrotation Yrotation Xrotation
						End Site
						{
							OFFSET 0.000000 0.000000 0.000000
						}
					}
				}
			}
		}
	}
	JOINT LowerBack
	{
		OFFSET 0.000000 0.000000 0.000000
		CHANNELS 3 Zrotation Yrotation Xrotation
		JOINT Spine
		{
			OFFSET 0.028270 2.035590 -0.193380
			CHANNELS 3 Zrotation Yrotation Xrotation
			JOINT Spine1
			{
				OFFSET 0.056720 2.048850 -0.042750
				CHANNELS 3 Zrotation Yrotation Xrotation
				JOINT Neck
				{
					OFFSET 0.000000 0.000000 0.000000
					CHANNELS 3 Zrotation Yrotation Xrotation
					JOINT Neck1
					{
						OFFSET -0.054170 1.746240 0.172020
						CHANNELS 3 Zrotation Yrotation Xrotation
						JOINT Head
						{
							OFFSET 0.104070 1.761360 -0.123970
							CHANNELS 3 Zrotation Yrotation Xrotation
							End Site
							{
								OFFSET 0.000000 0.000000 0.000000
							}
						}
					}
				}
				JOINT LeftShoulder
				{
					OFFSET 0.000000 0.000000 0.000000
					CHANNELS 3 Zrotation Yrotation Xrotation
					JOINT LeftArm
					{
						OFFSET 3.362410 1.200890 -0.311210
						CHANNELS 3 Zrotation Yrotation Xrotation
						JOINT LeftForeArm
						{
							OFFSET 4.983000 -0.000000 -0.000000
							CHANNELS 3 Zrotation Yrotation Xrotation
							JOINT LeftHand
							{
								OFFSET 3.483560 -0.000000 -0.000000
								CHANNELS 3 Zrotation Yrotation Xrotation
								JOINT LeftFingerBase
								{
									OFFSET 0.000000 0.000000 0.000000
									CHANNELS 3 Zrotation Yrotation Xrotation
									JOINT LeftHandIndex1
									{
										OFFSET 0.715260 -0.000000 -0.000000
										CHANNELS 3 Zrotation Yrotation Xrotation
										End Site
										{
											OFFSET 0.000000 0.000000 0.000000
										}
									}
								}
								JOINT LThumb
								{
									OFFSET 0.000000 0.000000 0.000000
									CHANNELS 3 Zrotation Yrotation Xrotation
									End Site
									{
										OFFSET 0.000000 0.000000 0.000000
									}
								}
							}
						}
					}
				}
				JOINT RightShoulder
				{
					OFFSET 0.000000 0.000000 0.000000
					CHANNELS 3 Zrotation Yrotation Xrotation
					JOINT RightArm
					{
						OFFSET -3.136600 1.374050 -0.404650
						CHANNELS 3 Zrotation Yrotation Xrotation
						JOINT RightForeArm
						{
							OFFSET -5.241900 -0.000000 -0.000000
							CHANNELS 3 Zrotation Yrotation Xrotation
							JOINT RightHand
							{
								OFFSET -3.444170 -0.000000 -0.000000
								CHANNELS 3 Zrotation Yrotation Xrotation
								JOINT RightFingerBase
								{
									OFFSET 0.000000 0.000000 0.000000
									CHANNELS 3 Zrotation Yrotation Xrotation
									JOINT RightHandIndex1
									{
										OFFSET -0.622530 -0.000000 -0.000000
										CHANNELS 3 Zrotation Yrotation Xrotation
										End Site
										{
											OFFSET 0.000000 0.000000 0.000000
										}
									}
								}
								JOINT RThumb
								{
									OFFSET 0.000000 0.000000 0.000000
									CHANNELS 3 Zrotation Yrotation Xrotation
									End Site
									{
										OFFSET 0.000000 0.000000 0.000000
									}
								}
							}
						}
					}
				}
			}
		}
	}
}
MOTION
Frames: 4
Frame Time: 0.008333
20.017399 18.427057 3.981005 4.288869 -0.550305 4.054754 -9.137294 2.119861 7.090368 -14.062995 0.971087 -2.830267 0.607110 7.897301 24.640983 2.279587 -8.929433 13.802117 0.112000 -2.158100 -5.942900 5.183733 -1.438929 1.297779 9.710035 13.145200 -24.296900 -1.588475 -8.519678 25.493335 2.748070 -11.600571 7.415444 -0.210500 -2.953900 8.150600 -3.284632 -0.665976 -2.314557 -0.830359 -1.107278 0.406971 0.091106 -0.874244 0.049850 -4.676368 -1.542486 -14.517230 -0.782722 -0.407531 32.037664 -0.818900 -0.438500 15.180500 -0.261524 -3.047219 0.822240 -83.850088 6.199982 48.784264 125.812954 -55.429419 -93.683562 0.629815 -1.554873 10.660417 24.927896 30.688019 13.485300 -7.125000 0.000000 0.000000 -10.319400 64.599400 -4.920300 1.871855 3.338789 0.311139 84.886058 -0.829548 54.190217 -109.393851 59.375863 -82.411817 0.820029 1.247993 -24.512390 -25.067543 14.855621 -6.753600 7.125000 0.000000 0.000000 0.736500 -14.612100 0.526900 
20.009701 18.456050 4.157165 4.169402 -0.762208 3.764059 -9.021360 2.047228 6.929736 -13.821914 1.262567 -3.601804 0.983977 8.615535 26.875482 2.221031 -8.397839 16.318443 0.000000 -0.009400 -0.025800 5.140866 -1.426268 1.457096 10.236337 11.834495 -23.852896 -1.531822 -8.508813 25.560722 2.199699 -9.882135 7.693863 -0.209100 -2.943800 8.122300 -3.058678 -0.700563 -2.321568 -0.631728 -1.143165 0.499400 0.156147 -0.893235 0.169038 -4.914463 -1.814351 -14.698897 -0.754561 -0.734454 32.262671 -0.809500 -0.607000 15.336600 -0.269825 -3.040334 0.815059 -83.733714 5.757927 49.261317 124.143346 -56.004514 -92.559858 0.619571 -1.591641 11.048762 24.960109 29.823888 13.202300 -7.125000 0.000000 0.000000 -9.677900 63.770300 -4.424600 1.864230 3.355890 0.312095 84.708997 -1.268660 53.948359 -109.968154 59.299362 -82.799535 0.849863 1.213480 -24.393526 -25.191792 15.636160 -7.180400 7.125000 0.000000 0.000000 0.711700 -13.699200 0.522900 
20.001903 18.500740 4.337425 3.800369 -1.303281 3.443654 -8.885552 2.005256 6.785693 -13.394093 2.013878 -4.478067 1.408636 9.321193 29.078841 2.189820 -8.091320 17.684673 0.005100 -0.459600 -1.262700 5.116852 -1.434181 1.612636 11.031804 10.735596 -23.185167 -1.465945 -8.440911 25.502051 1.747040 -8.433775 7.919388 -0.115300 -2.189300 6.029200 -2.525390 -0.596555 -2.333063 -0.395304 -0.984895 0.635412 0.062031 -0.807443 0.307740 -4.958421 -1.997640 -14.732555 -0.885440 -0.962813 32.321812 -0.892300 -0.725900 15.373500 -0.277452 -3.030117 0.811770 -83.942605 5.401153 49.556137 123.074267 -56.351889 -91.855713 0.630426 -1.617371 11.260886 24.477157 29.247578 12.701900 -7.125000 0.000000 0.000000 -9.885200 63.066600 -4.357400 1.861686 3.365027 0.309161 84.581759 -1.785697 53.569348 -110.394652 59.237422 -83.096788 0.874694 1.171878 -24.092596 -24.915326 16.353328 -7.449400 7.125000 0.000000 0.000000 0.961800 -12.905400 0.722800 
19.992005 18.520336 4.501788 3.356722 -1.756912 3.293409 -8.738326 1.960071 6.623339 -12.870742 2.726181 -5.542839 1.874219 10.025255 31.306167 2.148038 -7.810230 18.410373 0.118200 -2.216100 -6.103400 5.090803 -1.442417 1.732151 11.801808 10.071265 -22.680122 -1.438427 -8.395015 25.539678 1.430228 -7.348593 7.820950 -0.048200 -1.416500 3.895600 -1.936440 -0.501178 -2.286327 -0.167987 -0.846162 0.633683 -0.069468 -0.720600 0.273732 -4.989711 -2.100359 -14.577195 -0.774759 -1.164201 32.338921 -0.865900 -0.797600 15.340300 -0.280822 -2.995929 0.809233 -84.318755 5.589926 49.674148 123.003874 -56.364964 -91.873219 0.653537 -1.621059 11.534772 23.411269 28.497917 11.797900 -7.125000 0.000000 0.000000 -10.643400 61.998900 -4.427900 1.859246 3.367064 0.304929 84.528962 -2.200936 53.245758 -110.665819 59.191692 -83.311078 0.863086 1.152238 -23.854979 -24.345617 16.256761 -7.223400 7.125000 0.000000 0.000000 1.352300 -13.071400 1.011700 
